<?xml version="1.0" encoding="utf-8"?>
<!-- Generator: Adobe Illustrator 19.1.0, SVG Export Plug-In . SVG Version: 6.00 Build 0)  -->
<svg version="1.1" id="Layer_1" xmlns="http://www.w3.org/2000/svg" xmlns:xlink="http://www.w3.org/1999/xlink" x="0px" y="0px"
	 width="450px" height="420.3px" viewBox="0 0 450 420.3" enable-background="new 0 0 450 420.3" xml:space="preserve">
<g>
	<g id="right">
		<path fill="#7C7B79" d="M429.3,16.9c0,0-35.6,159.9-81.7,220.3c-46.1,60.4-200.4,102.8-200.4,102.8l6.1,80.4l253.5-98.2L450,14
			L429.3,16.9z"/>
		<path fill="#499E52" d="M313.3,150.4c45.5-70,58.1-125.5,58.1-125.5l14-1.9l-42.3,5.9c-94.1,23.3-93.1,121.5-208.3,149.3l5.6,73
			l-0.3-4.4C140.1,246.9,267.8,220.4,313.3,150.4z"/>
		<path fill="#00BDDC" d="M347.6,237.2c46.1-60.4,81.7-220.3,81.7-220.3l-57.9,8c0,0-12.6,55.5-58.1,125.5s-173.3,96.4-173.3,96.4
			l7.1,93C147.2,339.9,301.4,297.5,347.6,237.2z"/>
	</g>
	<g id="left">
		<polygon fill="#5A5957" points="147.2,339.9 17,244.1 25.8,323.1 153.3,420.3 		"/>
		<polygon fill="#355A38" points="134.8,178.2 0,91.4 7.9,162.5 140.1,246.9 		"/>
		<polygon fill="#0094B0" points="140.1,246.9 7.9,162.5 17,244.1 147.2,339.9 		"/>
	</g>
	<path id="top" fill="#59C064" d="M134.8,178.2L0,91.4C185.1,64.2,170.2-3.4,250.1,0.1L450,14L343.1,28.9
		C249.1,52.2,250.1,150.4,134.8,178.2z"/>
</g>
</svg>
