<?xml version="1.0" encoding="utf-8"?>
<!-- Generator: Adobe Illustrator 19.1.0, SVG Export Plug-In . SVG Version: 6.00 Build 0)  -->
<svg version="1.1" xmlns="http://www.w3.org/2000/svg" xmlns:xlink="http://www.w3.org/1999/xlink" x="0px" y="0px" width="390.2px"
	 height="107px" viewBox="0 0 390.2 107" enable-background="new 0 0 390.2 107" xml:space="preserve">
<g id="For_Drupal" display="none">
	<g>
		<g display="inline">
			<path fill="#7C7B79" d="M311.2,73.7h4.9V75h-3.5v2.3h3v1.2h-3v3.4h-1.5V73.7z"/>
			<path fill="#7C7B79" d="M317.5,77.8c0-2.6,1.5-4.2,3.6-4.2c2.1,0,3.6,1.6,3.6,4.2c0,2.7-1.5,4.3-3.6,4.3
				C319,82.1,317.5,80.4,317.5,77.8z M323.3,77.8c0-1.8-0.8-2.9-2.1-2.9S319,76,319,77.8c0,1.8,0.8,3,2.1,3S323.3,79.6,323.3,77.8z"
				/>
			<path fill="#7C7B79" d="M331.4,81.9l-1.8-3.2h-1.3v3.2h-1.5v-8.2h2.8c1.7,0,3,0.6,3,2.4c0,1.3-0.7,2-1.6,2.3l2,3.4H331.4z
				 M328.3,77.6h1.2c1.1,0,1.7-0.5,1.7-1.4c0-0.9-0.6-1.3-1.7-1.3h-1.2V77.6z"/>
			<path fill="#7C7B79" d="M337.8,73.7h2.2c2.5,0,4,1.4,4,4.1c0,2.7-1.5,4.1-3.9,4.1h-2.3V73.7z M339.9,80.7c1.7,0,2.6-0.9,2.6-3
				c0-2-0.9-2.9-2.6-2.9h-0.6v5.8H339.9z"/>
			<path fill="#7C7B79" d="M350.6,81.9l-1.8-3.2h-1.3v3.2h-1.5v-8.2h2.8c1.7,0,3,0.6,3,2.4c0,1.3-0.7,2-1.6,2.3l2,3.4H350.6z
				 M347.6,77.6h1.2c1.1,0,1.7-0.5,1.7-1.4c0-0.9-0.6-1.3-1.7-1.3h-1.2V77.6z"/>
			<path fill="#7C7B79" d="M353.9,78.3v-4.6h1.5v4.7c0,1.8,0.7,2.4,1.7,2.4c1,0,1.7-0.6,1.7-2.4v-4.7h1.4v4.6c0,2.7-1.2,3.7-3.1,3.7
				C355.1,82.1,353.9,81,353.9,78.3z"/>
			<path fill="#7C7B79" d="M362.6,73.7h2.6c1.8,0,3.2,0.6,3.2,2.5c0,1.8-1.4,2.7-3.1,2.7H364v3h-1.5V73.7z M365.1,77.7
				c1.2,0,1.8-0.5,1.8-1.5c0-1-0.6-1.4-1.9-1.4h-1v2.9H365.1z"/>
			<path fill="#7C7B79" d="M373.7,79.7H371l-0.6,2.2h-1.5l2.7-8.2h1.7l2.7,8.2h-1.5L373.7,79.7z M373.4,78.6l-0.3-1
				c-0.3-0.9-0.5-1.8-0.7-2.7h0c-0.2,0.9-0.5,1.8-0.7,2.7l-0.3,1H373.4z"/>
			<path fill="#7C7B79" d="M377.5,73.7h1.5v7h3.4v1.2h-4.9V73.7z"/>
		</g>
		<g display="inline">
			<path fill="#7C7B79" d="M383.7,74.3h-0.8v-0.6h2.2v0.6h-0.8v2h-0.6V74.3z M385.5,73.8h0.8l0.4,0.9l0.2,0.6h0l0.2-0.6l0.3-0.9h0.8
				v2.6h-0.6v-1l0.1-0.9h0l-0.5,1.5h-0.5l-0.5-1.5h0l0.1,0.9v1h-0.6V73.8z"/>
		</g>
	</g>
	<g>
		<g display="inline">
			<path fill="#7C7B79" d="M273.2,77.8h7.4v1.8h-5.2v3.4h4.4v1.8h-4.4V90h-2.2V77.8z"/>
			<path fill="#7C7B79" d="M282.6,83.8c0-3.9,2.2-6.3,5.4-6.3c3.2,0,5.4,2.3,5.4,6.3c0,4-2.2,6.4-5.4,6.4
				C284.8,90.2,282.6,87.8,282.6,83.8z M291.1,83.8c0-2.7-1.2-4.4-3.1-4.4s-3.1,1.7-3.1,4.4c0,2.7,1.2,4.5,3.1,4.5
				S291.1,86.6,291.1,83.8z"/>
			<path fill="#7C7B79" d="M303.1,90l-2.6-4.8h-1.9V90h-2.2V77.8h4.1c2.5,0,4.5,0.9,4.5,3.6c0,1.9-1,3-2.4,3.5l2.9,5.1H303.1z
				 M298.6,83.5h1.7c1.7,0,2.6-0.7,2.6-2.1c0-1.4-0.9-1.9-2.6-1.9h-1.7V83.5z"/>
			<path fill="#7C7B79" d="M312.7,77.8h3.3c3.7,0,5.9,2,5.9,6c0,4-2.2,6.1-5.8,6.1h-3.4V77.8z M315.8,88.2c2.5,0,3.9-1.4,3.9-4.4
				c0-3-1.4-4.3-3.9-4.3h-1v8.7H315.8z"/>
			<path fill="#7C7B79" d="M331.6,90l-2.6-4.8h-1.9V90H325V77.8h4.1c2.5,0,4.5,0.9,4.5,3.6c0,1.9-1,3-2.4,3.5l2.9,5.1H331.6z
				 M327.2,83.5h1.7c1.7,0,2.6-0.7,2.6-2.1c0-1.4-0.9-1.9-2.6-1.9h-1.7V83.5z"/>
			<path fill="#7C7B79" d="M336.5,84.6v-6.8h2.2v7c0,2.6,1,3.5,2.5,3.5c1.5,0,2.5-0.9,2.5-3.5v-7h2.1v6.8c0,4-1.8,5.6-4.6,5.6
				C338.3,90.2,336.5,88.6,336.5,84.6z"/>
			<path fill="#7C7B79" d="M349.4,77.8h3.8c2.7,0,4.7,0.9,4.7,3.8c0,2.7-2,3.9-4.6,3.9h-1.8V90h-2.2V77.8z M353.2,83.8
				c1.8,0,2.7-0.7,2.7-2.2c0-1.5-1-2-2.8-2h-1.5v4.2H353.2z"/>
			<path fill="#7C7B79" d="M366,86.7h-4.1l-1,3.3h-2.2l4-12.2h2.5l4,12.2h-2.3L366,86.7z M365.5,85l-0.4-1.5c-0.4-1.3-0.7-2.7-1.1-4
				h-0.1c-0.3,1.4-0.7,2.7-1.1,4l-0.4,1.5H365.5z"/>
			<path fill="#7C7B79" d="M371.5,77.8h2.2v10.4h5.1V90h-7.2V77.8z"/>
		</g>
		<g display="inline">
			<path fill="#7C7B79" d="M381,78.7h-1.2v-0.9h3.3v0.9h-1.2v3h-1V78.7z M383.6,77.8h1.1l0.5,1.3l0.3,0.9h0l0.3-0.9l0.5-1.3h1.1v3.9
				h-0.9v-1.4l0.1-1.4h0l-0.8,2.2h-0.7l-0.8-2.2h0l0.1,1.4v1.4h-0.9V77.8z"/>
		</g>
	</g>
	<g id="outline" display="inline">
		<g>
			<path fill="#7C7B79" d="M273.2,77.5h7.5v1.9h-5.3v3.5h4.5v1.9h-4.5V90h-2.2V77.5z"/>
			<path fill="#7C7B79" d="M282.8,83.7c0-4,2.2-6.4,5.5-6.4c3.3,0,5.5,2.4,5.5,6.4c0,4-2.2,6.5-5.5,6.5
				C285,90.2,282.8,87.7,282.8,83.7z M291.5,83.7c0-2.8-1.3-4.5-3.2-4.5s-3.2,1.7-3.2,4.5c0,2.8,1.3,4.6,3.2,4.6
				S291.5,86.5,291.5,83.7z"/>
			<path fill="#7C7B79" d="M303.8,90l-2.7-4.9h-1.9V90H297V77.5h4.2c2.6,0,4.6,0.9,4.6,3.7c0,1.9-1,3-2.5,3.6l3,5.2H303.8z
				 M299.2,83.4h1.8c1.7,0,2.6-0.7,2.6-2.1c0-1.4-0.9-1.9-2.6-1.9h-1.8V83.4z"/>
			<path fill="#7C7B79" d="M313.6,77.5h3.3c3.8,0,6.1,2.1,6.1,6.2c0,4.1-2.2,6.3-5.9,6.3h-3.4V77.5z M316.8,88.2
				c2.5,0,3.9-1.4,3.9-4.5c0-3-1.4-4.4-3.9-4.4h-1v8.9H316.8z"/>
			<path fill="#7C7B79" d="M332.9,90l-2.7-4.9h-1.9V90h-2.2V77.5h4.2c2.6,0,4.6,0.9,4.6,3.7c0,1.9-1,3-2.5,3.6l3,5.2H332.9z
				 M328.4,83.4h1.8c1.7,0,2.6-0.7,2.6-2.1c0-1.4-0.9-1.9-2.6-1.9h-1.8V83.4z"/>
			<path fill="#7C7B79" d="M337.9,84.5v-7h2.2v7.2c0,2.7,1,3.6,2.5,3.6c1.5,0,2.6-0.9,2.6-3.6v-7.2h2.1v7c0,4.1-1.8,5.7-4.7,5.7
				C339.8,90.2,337.9,88.6,337.9,84.5z"/>
			<path fill="#7C7B79" d="M351.1,77.5h3.9c2.8,0,4.8,1,4.8,3.8c0,2.8-2.1,4-4.7,4h-1.8V90h-2.2V77.5z M354.9,83.6
				c1.8,0,2.7-0.7,2.7-2.3c0-1.6-1-2.1-2.8-2.1h-1.5v4.3H354.9z"/>
			<path fill="#7C7B79" d="M368,86.6h-4.2l-1,3.4h-2.2l4.1-12.5h2.6l4.1,12.5H369L368,86.6z M367.5,84.9l-0.4-1.5
				c-0.4-1.3-0.8-2.7-1.1-4.1h-0.1c-0.3,1.4-0.7,2.8-1.1,4.1l-0.4,1.5H367.5z"/>
			<path fill="#7C7B79" d="M373.7,77.5h2.2v10.6h5.2V90h-7.4V77.5z"/>
		</g>
		<g>
			<path fill="#7C7B79" d="M383.4,78.5h-1.2v-0.9h3.4v0.9h-1.2v3h-1V78.5z M386.1,77.6h1.2l0.5,1.4l0.3,0.9h0.1l0.3-0.9l0.5-1.4h1.2
				v3.9h-0.9V80l0.1-1.4h-0.1l-0.8,2.3h-0.7l-0.8-2.3h0L387,80v1.5h-0.9V77.6z"/>
		</g>
	</g>
</g>
<g id="Layer_1">
	<g display="none">
		<path display="inline" fill="#7C7B79" d="M157.4,18.7c1.1,0,2.2,0.2,3.2,0.7c1,0.4,1.9,1,2.6,1.7c0.7,0.7,1.3,1.6,1.7,2.6
			c0.4,1,0.7,2.1,0.7,3.2v39.4c0,0.4-0.1,0.7-0.4,0.9c-0.3,0.3-0.6,0.4-0.9,0.4h-9.7c-0.4,0-0.7-0.1-0.9-0.4
			c-0.3-0.3-0.4-0.6-0.4-0.9V53.7c0-0.4-0.1-0.7-0.3-0.9c-0.2-0.3-0.5-0.4-0.9-0.4h-13.8c-0.4,0-0.7,0.1-0.9,0.4
			c-0.3,0.3-0.4,0.6-0.4,0.9v12.5c0,0.9-0.4,1.3-1.3,1.3h-9.6c-0.9,0-1.3-0.4-1.3-1.3V26.8c0-1.1,0.2-2.2,0.6-3.2
			c0.4-1,1-1.9,1.7-2.6c0.7-0.7,1.6-1.3,2.6-1.7c1-0.4,2.1-0.7,3.2-0.7H157.4z M153.2,41.9V29.6h-16.4v12.3H153.2z"/>
		<path display="inline" fill="#7C7B79" d="M207.2,18.7c1.1,0,2.2,0.2,3.2,0.7c1,0.4,1.9,1,2.6,1.7c0.7,0.7,1.3,1.6,1.7,2.6
			c0.4,1,0.7,2.1,0.7,3.2v32.6c0,1.1-0.2,2.2-0.6,3.1c-0.4,1-1,1.8-1.7,2.6c-0.7,0.7-1.6,1.3-2.5,1.7c-1,0.4-2,0.7-3.1,0.7h-1.3
			c-0.2,0-0.2,0.1-0.1,0.3l3.8,6.6c0.2,0.3,0.2,0.6,0.1,0.8c-0.1,0.2-0.4,0.3-0.7,0.3h-11.6c-0.4,0-0.7-0.1-1.1-0.3
			c-0.4-0.2-0.7-0.5-0.8-0.8l-3.8-6.6c-0.2-0.2-0.3-0.3-0.5-0.3h-8.8c-1.1,0-2.2-0.2-3.2-0.6c-1-0.4-1.9-1-2.6-1.7
			c-0.7-0.7-1.3-1.6-1.7-2.6c-0.4-1-0.6-2.1-0.6-3.2V26.8c0-1.1,0.2-2.2,0.6-3.2c0.4-1,1-1.9,1.7-2.6c0.7-0.7,1.6-1.3,2.6-1.7
			c1-0.4,2.1-0.7,3.2-0.7H207.2z M186.6,56.2H203V30.5h-16.4V56.2z"/>
		<path display="inline" fill="#7C7B79" d="M265.1,19c0.3,0.3,0.4,0.6,0.4,0.9v39.4c0,1.1-0.2,2.2-0.7,3.2c-0.4,1-1,1.9-1.7,2.6
			c-0.7,0.7-1.6,1.3-2.6,1.7s-2.1,0.6-3.2,0.6h-24.7c-1.1,0-2.2-0.2-3.2-0.6c-1-0.4-1.9-1-2.6-1.7c-0.7-0.7-1.3-1.6-1.7-2.6
			c-0.4-1-0.6-2.1-0.6-3.2V20c0-0.9,0.4-1.3,1.3-1.3h9.6c0.9,0,1.3,0.4,1.3,1.3v34.4c0,0.4,0.1,0.7,0.4,0.9c0.3,0.2,0.6,0.3,0.9,0.3
			h13.8c0.4,0,0.7-0.1,0.9-0.3c0.2-0.2,0.3-0.5,0.3-0.9V20c0-0.4,0.1-0.7,0.4-0.9c0.3-0.3,0.6-0.4,0.9-0.4h9.7
			C264.5,18.7,264.8,18.8,265.1,19z"/>
		<path display="inline" fill="#7C7B79" d="M287.1,66.2c0,0.9-0.4,1.3-1.3,1.3h-9.6c-0.9,0-1.3-0.4-1.3-1.3V20
			c0-0.9,0.4-1.3,1.3-1.3h9.6c0.9,0,1.3,0.4,1.3,1.3V66.2z"/>
		<path display="inline" fill="#7C7B79" d="M333.3,19c0.3,0.3,0.4,0.6,0.4,0.9v9.2c0,0.4-0.1,0.7-0.4,0.9c-0.3,0.3-0.6,0.4-0.9,0.4
			H309c-0.2,0-0.3,0.1-0.3,0.3v8.3c0,0.2,0.1,0.3,0.3,0.3h17.7c0.4,0,0.7,0.1,0.9,0.4c0.2,0.3,0.3,0.6,0.3,0.9v8
			c0,0.4-0.1,0.7-0.3,0.9c-0.2,0.3-0.5,0.4-0.9,0.4H309c-0.2,0-0.3,0.1-0.3,0.3v15.7c0,0.9-0.4,1.3-1.3,1.3h-9.6
			c-0.9,0-1.3-0.4-1.3-1.3V20c0-0.4,0.1-0.7,0.4-0.9c0.3-0.3,0.6-0.4,0.9-0.4h34.7C332.8,18.7,333.1,18.8,333.3,19z"/>
		<path display="inline" fill="#7C7B79" d="M378.1,19c0.3,0.3,0.4,0.6,0.4,0.9v4v2.1v2.7c0,0.4-0.1,0.7-0.4,0.9
			c-0.3,0.2-0.6,0.3-0.9,0.3h-5h-14.5h-3.9c-0.2,0-0.3,0.1-0.3,0.3V38c0,0.2,0.1,0.3,0.3,0.3h20c0.4,0,0.7,0.1,0.9,0.4
			c0.2,0.3,0.3,0.6,0.3,0.9v7c0,0.4-0.1,0.7-0.3,0.9c-0.2,0.3-0.5,0.4-0.9,0.4h-20c-0.2,0-0.3,0.1-0.3,0.3v3.4v0.1v4.1
			c0,0.2,0.1,0.3,0.3,0.3h2.9h15.8h4.7c0.4,0,0.7,0.1,0.9,0.4c0.3,0.3,0.4,0.6,0.4,0.9v2.8v3.6v2.3c0,0.4-0.1,0.7-0.4,0.9
			c-0.3,0.3-0.6,0.4-0.9,0.4h-4h-26.6h-4.2c-0.9,0-1.3-0.4-1.3-1.3v-2.4V23.3V20c0-0.4,0.1-0.7,0.4-0.9c0.3-0.3,0.6-0.4,0.9-0.4h5.1
			h27.4h2.2C377.5,18.7,377.8,18.8,378.1,19z"/>
		<path display="inline" fill="#7C7B79" d="M430.3,66.5c0.2,0.3,0.2,0.6,0.1,0.8s-0.4,0.3-0.8,0.3h-11.1c-0.4,0-0.7-0.1-1.1-0.3
			s-0.7-0.5-0.8-0.8l-7.4-13.3c-0.1-0.2-0.3-0.3-0.5-0.3h-8.3c-0.2,0-0.3,0.1-0.3,0.3v13c0,0.9-0.4,1.3-1.3,1.3H389
			c-0.9,0-1.3-0.4-1.3-1.3V20c0-0.9,0.4-1.3,1.3-1.3h31.6c1.1,0,2.2,0.2,3.2,0.7c1,0.4,1.9,1,2.6,1.7c0.7,0.7,1.3,1.6,1.7,2.6
			c0.4,1,0.7,2.1,0.7,3.2v18.4c0,1.8-0.5,3.4-1.6,4.8c-1,1.4-2.4,2.4-4,2.9L423,53c-0.3,0.1-0.4,0.2-0.2,0.4l0.1,0.1L430.3,66.5z
			 M416.4,30.1h-16.8v11.9h16.8V30.1z"/>
	</g>
	<g display="none">
		<path display="inline" fill="#7C7B79" d="M157.4,18.7c1.1,0,2.2,0.2,3.2,0.7c1,0.4,1.9,1,2.6,1.7c0.7,0.7,1.3,1.6,1.7,2.6
			c0.4,1,0.7,2.1,0.7,3.2v39.4c0,0.4-0.1,0.7-0.4,0.9c-0.3,0.3-0.6,0.4-0.9,0.4h-9.7c-0.4,0-0.7-0.1-0.9-0.4
			c-0.3-0.3-0.4-0.6-0.4-0.9V53.7c0-0.4-0.1-0.7-0.3-0.9c-0.2-0.3-0.5-0.4-0.9-0.4h-13.8c-0.4,0-0.7,0.1-0.9,0.4
			c-0.3,0.3-0.4,0.6-0.4,0.9v12.5c0,0.9-0.4,1.3-1.3,1.3h-9.6c-0.9,0-1.3-0.4-1.3-1.3V26.8c0-1.1,0.2-2.2,0.6-3.2
			c0.4-1,1-1.9,1.7-2.6c0.7-0.7,1.6-1.3,2.6-1.7c1-0.4,2.1-0.7,3.2-0.7H157.4z M153.2,41.9V29.6h-16.4v12.3H153.2z"/>
		<path display="inline" fill="#7C7B79" d="M207.2,18.7c1.1,0,2.2,0.2,3.2,0.7c1,0.4,1.9,1,2.6,1.7c0.7,0.7,1.3,1.6,1.7,2.6
			c0.4,1,0.7,2.1,0.7,3.2v32.6c0,1.1-0.2,2.2-0.6,3.1c-0.4,1-1,1.8-1.7,2.6c-0.7,0.7-1.6,1.3-2.5,1.7c-1,0.4-2,0.7-3.1,0.7h-1.3
			c-0.2,0-0.2,0.1-0.1,0.3l3.8,6.6c0.2,0.3,0.2,0.6,0.1,0.8c-0.1,0.2-0.4,0.3-0.7,0.3h-11.6c-0.4,0-0.7-0.1-1.1-0.3
			c-0.4-0.2-0.7-0.5-0.8-0.8l-3.8-6.6c-0.2-0.2-0.3-0.3-0.5-0.3h-8.8c-1.1,0-2.2-0.2-3.2-0.6c-1-0.4-1.9-1-2.6-1.7
			c-0.7-0.7-1.3-1.6-1.7-2.6c-0.4-1-0.6-2.1-0.6-3.2V26.8c0-1.1,0.2-2.2,0.6-3.2c0.4-1,1-1.9,1.7-2.6c0.7-0.7,1.6-1.3,2.6-1.7
			c1-0.4,2.1-0.7,3.2-0.7H207.2z M186.6,56.2H203V30.5h-16.4V56.2z"/>
		<path display="inline" fill="#7C7B79" d="M265.1,19c0.3,0.3,0.4,0.6,0.4,0.9v39.4c0,1.1-0.2,2.2-0.7,3.2c-0.4,1-1,1.9-1.7,2.6
			c-0.7,0.7-1.6,1.3-2.6,1.7s-2.1,0.6-3.2,0.6h-24.7c-1.1,0-2.2-0.2-3.2-0.6c-1-0.4-1.9-1-2.6-1.7c-0.7-0.7-1.3-1.6-1.7-2.6
			c-0.4-1-0.6-2.1-0.6-3.2V20c0-0.9,0.4-1.3,1.3-1.3h9.6c0.9,0,1.3,0.4,1.3,1.3v34.4c0,0.4,0.1,0.7,0.4,0.9c0.3,0.2,0.6,0.3,0.9,0.3
			h13.8c0.4,0,0.7-0.1,0.9-0.3c0.2-0.2,0.3-0.5,0.3-0.9V20c0-0.4,0.1-0.7,0.4-0.9c0.3-0.3,0.6-0.4,0.9-0.4h9.7
			C264.5,18.7,264.8,18.8,265.1,19z"/>
		<path display="inline" fill="#7C7B79" d="M287.1,66.2c0,0.9-0.4,1.3-1.3,1.3h-9.6c-0.9,0-1.3-0.4-1.3-1.3V20
			c0-0.9,0.4-1.3,1.3-1.3h9.6c0.9,0,1.3,0.4,1.3,1.3V66.2z"/>
		<path display="inline" fill="#7C7B79" d="M333.3,19c0.3,0.3,0.4,0.6,0.4,0.9v9.2c0,0.4-0.1,0.7-0.4,0.9c-0.3,0.3-0.6,0.4-0.9,0.4
			H309c-0.2,0-0.3,0.1-0.3,0.3v8.3c0,0.2,0.1,0.3,0.3,0.3h17.7c0.4,0,0.7,0.1,0.9,0.4c0.2,0.3,0.3,0.6,0.3,0.9v8
			c0,0.4-0.1,0.7-0.3,0.9c-0.2,0.3-0.5,0.4-0.9,0.4H309c-0.2,0-0.3,0.1-0.3,0.3v15.7c0,0.9-0.4,1.3-1.3,1.3h-9.6
			c-0.9,0-1.3-0.4-1.3-1.3V20c0-0.4,0.1-0.7,0.4-0.9c0.3-0.3,0.6-0.4,0.9-0.4h34.7C332.8,18.7,333.1,18.8,333.3,19z"/>
		<path display="inline" fill="#7C7B79" d="M378.1,19c0.3,0.3,0.4,0.6,0.4,0.9v4v2.1v2.7c0,0.4-0.1,0.7-0.4,0.9
			c-0.3,0.2-0.6,0.3-0.9,0.3h-5h-14.5h-3.9c-0.2,0-0.3,0.1-0.3,0.3V38c0,0.2,0.1,0.3,0.3,0.3h20c0.4,0,0.7,0.1,0.9,0.4
			c0.2,0.3,0.3,0.6,0.3,0.9v7c0,0.4-0.1,0.7-0.3,0.9c-0.2,0.3-0.5,0.4-0.9,0.4h-20c-0.2,0-0.3,0.1-0.3,0.3v3.4v0.1v4.1
			c0,0.2,0.1,0.3,0.3,0.3h2.9h15.8h4.7c0.4,0,0.7,0.1,0.9,0.4c0.3,0.3,0.4,0.6,0.4,0.9v2.8v3.6v2.3c0,0.4-0.1,0.7-0.4,0.9
			c-0.3,0.3-0.6,0.4-0.9,0.4h-4h-26.6h-4.2c-0.9,0-1.3-0.4-1.3-1.3v-2.4V23.3V20c0-0.4,0.1-0.7,0.4-0.9c0.3-0.3,0.6-0.4,0.9-0.4h5.1
			h27.4h2.2C377.5,18.7,377.8,18.8,378.1,19z"/>
		<path display="inline" fill="#7C7B79" d="M430.3,66.5c0.2,0.3,0.2,0.6,0.1,0.8s-0.4,0.3-0.8,0.3h-11.1c-0.4,0-0.7-0.1-1.1-0.3
			s-0.7-0.5-0.8-0.8l-7.4-13.3c-0.1-0.2-0.3-0.3-0.5-0.3h-8.3c-0.2,0-0.3,0.1-0.3,0.3v13c0,0.9-0.4,1.3-1.3,1.3H389
			c-0.9,0-1.3-0.4-1.3-1.3V20c0-0.9,0.4-1.3,1.3-1.3h31.6c1.1,0,2.2,0.2,3.2,0.7c1,0.4,1.9,1,2.6,1.7c0.7,0.7,1.3,1.6,1.7,2.6
			c0.4,1,0.7,2.1,0.7,3.2v18.4c0,1.8-0.5,3.4-1.6,4.8c-1,1.4-2.4,2.4-4,2.9L423,53c-0.3,0.1-0.4,0.2-0.2,0.4l0.1,0.1L430.3,66.5z
			 M416.4,30.1h-16.8v11.9h16.8V30.1z"/>
	</g>
	<g display="none">
		<path display="inline" fill="#7C7B79" d="M170.9,22.4c1.4,0,2.6,0.3,3.9,0.8c1.2,0.5,2.3,1.2,3.1,2.1c0.9,0.9,1.6,1.9,2.1,3.1
			c0.5,1.2,0.8,2.5,0.8,3.9V80c0,0.5-0.2,0.8-0.5,1.1c-0.3,0.3-0.7,0.5-1.1,0.5h-11.8c-0.5,0-0.8-0.2-1.1-0.5
			c-0.3-0.3-0.5-0.7-0.5-1.1V64.9c0-0.5-0.1-0.8-0.4-1.1c-0.3-0.3-0.6-0.5-1.1-0.5h-16.8c-0.5,0-0.8,0.2-1.1,0.5
			c-0.3,0.3-0.5,0.7-0.5,1.1V80c0,1.1-0.5,1.6-1.6,1.6h-11.7c-1.1,0-1.6-0.5-1.6-1.6V32.3c0-1.4,0.3-2.6,0.8-3.9
			c0.5-1.2,1.2-2.3,2.1-3.1c0.9-0.9,2-1.6,3.2-2.1c1.2-0.5,2.5-0.8,3.9-0.8H170.9z M165.8,50.6V35.7h-19.9v14.9H165.8z"/>
		<path display="inline" fill="#7C7B79" d="M226.9,22.4c1.4,0,2.6,0.3,3.9,0.8c1.2,0.5,2.3,1.2,3.1,2.1c0.9,0.9,1.6,1.9,2.1,3.1
			c0.5,1.2,0.8,2.5,0.8,3.9v39.4c0,1.4-0.3,2.6-0.8,3.8s-1.2,2.2-2.1,3.1c-0.9,0.9-1.9,1.6-3,2.1s-2.4,0.8-3.8,0.8h-1.6
			c-0.2,0-0.3,0.1-0.2,0.3l4.6,8c0.2,0.4,0.3,0.7,0.1,1c-0.1,0.3-0.4,0.4-0.9,0.4h-14c-0.5,0-0.9-0.1-1.4-0.4c-0.5-0.3-0.8-0.6-1-1
			l-4.6-8c-0.2-0.2-0.4-0.3-0.6-0.3h-10.7c-1.4,0-2.6-0.3-3.9-0.8c-1.2-0.5-2.3-1.2-3.2-2.1c-0.9-0.9-1.6-2-2.1-3.2
			c-0.5-1.2-0.8-2.5-0.8-3.9V32.3c0-1.4,0.3-2.6,0.8-3.9c0.5-1.2,1.2-2.3,2.1-3.1c0.9-0.9,2-1.6,3.2-2.1c1.2-0.5,2.5-0.8,3.9-0.8
			H226.9z M201.9,67.8h19.9V36.8h-19.9V67.8z"/>
		<path display="inline" fill="#7C7B79" d="M292.7,22.8c0.3,0.3,0.5,0.7,0.5,1.1v47.7c0,1.4-0.3,2.6-0.8,3.9
			c-0.5,1.2-1.2,2.3-2.1,3.2c-0.9,0.9-1.9,1.6-3.1,2.1c-1.2,0.5-2.5,0.8-3.9,0.8h-30c-1.4,0-2.6-0.3-3.9-0.8
			c-1.2-0.5-2.3-1.2-3.2-2.1c-0.9-0.9-1.6-2-2.1-3.2c-0.5-1.2-0.8-2.5-0.8-3.9V24c0-1.1,0.5-1.6,1.6-1.6h11.7c1.1,0,1.6,0.5,1.6,1.6
			v41.7c0,0.5,0.2,0.8,0.5,1.1c0.3,0.3,0.7,0.4,1.1,0.4h16.8c0.5,0,0.8-0.1,1.1-0.4c0.3-0.3,0.4-0.6,0.4-1.1V24
			c0-0.5,0.2-0.8,0.5-1.1c0.3-0.3,0.7-0.5,1.1-0.5h11.8C292,22.4,292.4,22.5,292.7,22.8z"/>
		<path display="inline" fill="#7C7B79" d="M315,80c0,1.1-0.5,1.6-1.6,1.6h-11.7c-1.1,0-1.6-0.5-1.6-1.6V24c0-1.1,0.5-1.6,1.6-1.6
			h11.7c1.1,0,1.6,0.5,1.6,1.6V80z"/>
		<path display="inline" fill="#7C7B79" d="M366.8,22.8c0.3,0.3,0.5,0.7,0.5,1.1v11.2c0,0.5-0.2,0.8-0.5,1.1
			c-0.3,0.3-0.7,0.5-1.1,0.5h-28.4c-0.3,0-0.4,0.1-0.4,0.3v10.1c0,0.3,0.1,0.4,0.4,0.4h21.5c0.5,0,0.8,0.2,1.1,0.5
			c0.3,0.3,0.4,0.7,0.4,1.1v9.7c0,0.5-0.1,0.8-0.4,1.1c-0.3,0.3-0.6,0.5-1.1,0.5h-21.5c-0.3,0-0.4,0.1-0.4,0.4v19
			c0,1.1-0.5,1.6-1.6,1.6h-11.7c-1.1,0-1.6-0.5-1.6-1.6V24c0-0.5,0.2-0.8,0.5-1.1c0.3-0.3,0.7-0.5,1.1-0.5h42.1
			C366.1,22.4,366.5,22.5,366.8,22.8z"/>
		<path display="inline" fill="#7C7B79" d="M416.7,22.8c0.3,0.3,0.5,0.7,0.5,1.1v4.8v2.5v3.3c0,0.5-0.2,0.8-0.5,1.1
			c-0.3,0.3-0.7,0.4-1.1,0.4h-6h-17.6h-4.7c-0.3,0-0.4,0.1-0.4,0.4v9.2c0,0.2,0.1,0.3,0.4,0.3h24.2c0.5,0,0.8,0.2,1.1,0.5
			c0.3,0.3,0.4,0.7,0.4,1.1v8.5c0,0.5-0.1,0.8-0.4,1.1c-0.3,0.3-0.6,0.5-1.1,0.5h-24.2c-0.3,0-0.4,0.1-0.4,0.4v4.1v0.1v4.9
			c0,0.3,0.1,0.4,0.4,0.4h3.6h19.1h5.7c0.5,0,0.8,0.2,1.1,0.5c0.3,0.3,0.5,0.7,0.5,1.1v3.4v4.4V80c0,0.5-0.2,0.8-0.5,1.1
			c-0.3,0.3-0.7,0.5-1.1,0.5h-4.8h-32.2h-5.1c-1.1,0-1.6-0.5-1.6-1.6v-2.9V28V24c0-0.5,0.2-0.8,0.5-1.1c0.3-0.3,0.7-0.5,1.1-0.5h6.2
			h33.2h2.7C416,22.4,416.4,22.5,416.7,22.8z"/>
		<path display="inline" fill="#7C7B79" d="M475.6,80.3c0.2,0.4,0.3,0.7,0.1,1s-0.5,0.4-0.9,0.4h-13.5c-0.5,0-0.9-0.1-1.4-0.4
			c-0.5-0.3-0.8-0.6-1-1l-9-16.1c-0.1-0.2-0.3-0.3-0.6-0.3h-10.1c-0.3,0-0.4,0.1-0.4,0.4V80c0,1.1-0.5,1.6-1.6,1.6h-11.7
			c-1.1,0-1.6-0.5-1.6-1.6V24c0-1.1,0.5-1.6,1.6-1.6h38.3c1.4,0,2.6,0.3,3.9,0.8c1.2,0.5,2.3,1.2,3.1,2.1c0.9,0.9,1.6,1.9,2.1,3.1
			c0.5,1.2,0.8,2.5,0.8,3.9v22.3c0,2.1-0.6,4.1-1.9,5.8c-1.3,1.7-2.9,2.9-4.9,3.5l-0.3,0.1c-0.4,0.1-0.5,0.3-0.3,0.5l0.1,0.2
			L475.6,80.3z M458.8,36.2h-20.4v14.4h20.4V36.2z"/>
	</g>
	<g id="type_orig_1_" display="none">
		<path display="inline" fill="#7C7B79" d="M156.8,20.3c1,0,2,0.2,2.9,0.6c0.9,0.4,1.7,0.9,2.4,1.6c0.7,0.7,1.2,1.5,1.6,2.4
			c0.4,0.9,0.6,1.9,0.6,2.9v36.4c0,0.3-0.1,0.6-0.4,0.9c-0.2,0.2-0.5,0.4-0.9,0.4h-9c-0.3,0-0.6-0.1-0.9-0.4
			c-0.2-0.2-0.4-0.5-0.4-0.9V52.7c0-0.3-0.1-0.6-0.3-0.9c-0.2-0.2-0.5-0.4-0.8-0.4H139c-0.3,0-0.6,0.1-0.9,0.4
			c-0.2,0.2-0.4,0.5-0.4,0.9v11.5c0,0.8-0.4,1.2-1.2,1.2h-8.9c-0.8,0-1.2-0.4-1.2-1.2V27.9c0-1,0.2-2,0.6-2.9
			c0.4-0.9,0.9-1.7,1.6-2.4c0.7-0.7,1.5-1.2,2.4-1.6c0.9-0.4,1.9-0.6,2.9-0.6H156.8z M152.9,41.8V30.5h-15.1v11.3H152.9z"/>
		<path display="inline" fill="#7C7B79" d="M199.6,20.3c1,0,2,0.2,2.9,0.6c0.9,0.4,1.7,0.9,2.4,1.6c0.7,0.7,1.2,1.5,1.6,2.4
			c0.4,0.9,0.6,1.9,0.6,2.9v30c0,1-0.2,2-0.6,2.9c-0.4,0.9-0.9,1.7-1.6,2.4c-0.7,0.7-1.4,1.2-2.3,1.6c-0.9,0.4-1.8,0.6-2.9,0.6h-1.2
			c-0.2,0-0.2,0.1-0.1,0.3l3.5,6.1c0.2,0.3,0.2,0.5,0.1,0.7c-0.1,0.2-0.3,0.3-0.7,0.3h-10.7c-0.3,0-0.7-0.1-1-0.3
			c-0.3-0.2-0.6-0.4-0.8-0.7l-3.5-6.1c-0.2-0.2-0.3-0.3-0.5-0.3h-8.1c-1,0-2-0.2-2.9-0.6c-0.9-0.4-1.7-0.9-2.4-1.6
			c-0.7-0.7-1.2-1.5-1.6-2.4c-0.4-0.9-0.6-1.9-0.6-2.9v-30c0-1,0.2-2,0.6-2.9c0.4-0.9,0.9-1.7,1.6-2.4c0.7-0.7,1.5-1.2,2.4-1.6
			c0.9-0.4,1.9-0.6,2.9-0.6H199.6z M180.6,55h15.1V31.3h-15.1V55z"/>
		<path display="inline" fill="#7C7B79" d="M249.9,20.7c0.2,0.2,0.4,0.5,0.4,0.9v36.4c0,1-0.2,2-0.6,2.9c-0.4,0.9-0.9,1.7-1.6,2.4
			c-0.7,0.7-1.5,1.2-2.4,1.6c-0.9,0.4-1.9,0.6-2.9,0.6h-22.8c-1,0-2-0.2-2.9-0.6c-0.9-0.4-1.7-0.9-2.4-1.6c-0.7-0.7-1.2-1.5-1.6-2.4
			c-0.4-0.9-0.6-1.9-0.6-2.9V21.6c0-0.8,0.4-1.2,1.2-1.2h8.9c0.8,0,1.2,0.4,1.2,1.2v31.8c0,0.3,0.1,0.6,0.4,0.8
			c0.2,0.2,0.5,0.3,0.9,0.3h12.8c0.3,0,0.6-0.1,0.8-0.3c0.2-0.2,0.3-0.5,0.3-0.8V21.6c0-0.3,0.1-0.6,0.4-0.9
			c0.2-0.2,0.5-0.4,0.9-0.4h9C249.4,20.3,249.7,20.5,249.9,20.7z"/>
		<path display="inline" fill="#7C7B79" d="M267.1,64.2c0,0.8-0.4,1.2-1.2,1.2H257c-0.8,0-1.2-0.4-1.2-1.2V21.6
			c0-0.8,0.4-1.2,1.2-1.2h8.9c0.8,0,1.2,0.4,1.2,1.2V64.2z"/>
		<path display="inline" fill="#7C7B79" d="M306.7,20.7c0.2,0.2,0.4,0.5,0.4,0.9v8.5c0,0.3-0.1,0.6-0.4,0.9
			c-0.2,0.2-0.5,0.4-0.9,0.4h-21.6c-0.2,0-0.3,0.1-0.3,0.3v7.7c0,0.2,0.1,0.3,0.3,0.3h16.4c0.3,0,0.6,0.1,0.8,0.4
			c0.2,0.2,0.3,0.5,0.3,0.9v7.4c0,0.3-0.1,0.6-0.3,0.9c-0.2,0.2-0.5,0.4-0.8,0.4h-16.4c-0.2,0-0.3,0.1-0.3,0.3v14.5
			c0,0.8-0.4,1.2-1.2,1.2h-8.9c-0.8,0-1.2-0.4-1.2-1.2V21.6c0-0.3,0.1-0.6,0.4-0.9c0.2-0.2,0.5-0.4,0.9-0.4h32
			C306.2,20.3,306.5,20.5,306.7,20.7z"/>
		<path display="inline" fill="#7C7B79" d="M344.9,20.7c0.2,0.2,0.4,0.5,0.4,0.9v3.7v1.9v2.5c0,0.3-0.1,0.6-0.4,0.8
			c-0.2,0.2-0.5,0.3-0.9,0.3h-4.6h-13.4h-3.6c-0.2,0-0.3,0.1-0.3,0.3v7c0,0.2,0.1,0.3,0.3,0.3h18.4c0.3,0,0.6,0.1,0.8,0.4
			c0.2,0.2,0.3,0.5,0.3,0.9v6.4c0,0.3-0.1,0.6-0.3,0.9c-0.2,0.2-0.5,0.4-0.8,0.4h-18.4c-0.2,0-0.3,0.1-0.3,0.3v3.2v0.1v3.7
			c0,0.2,0.1,0.3,0.3,0.3h2.7h14.6h4.3c0.3,0,0.6,0.1,0.9,0.4c0.2,0.2,0.4,0.5,0.4,0.9v2.6v3.4v2.1c0,0.3-0.1,0.6-0.4,0.9
			c-0.2,0.2-0.5,0.4-0.9,0.4h-3.7h-24.5H312c-0.8,0-1.2-0.4-1.2-1.2v-2.2V24.7v-3.1c0-0.3,0.1-0.6,0.4-0.9c0.2-0.2,0.5-0.4,0.9-0.4
			h4.7H342h2.1C344.4,20.3,344.7,20.5,344.9,20.7z"/>
		<path display="inline" fill="#7C7B79" d="M390,64.4c0.2,0.3,0.2,0.5,0.1,0.7s-0.4,0.3-0.7,0.3h-10.2c-0.3,0-0.7-0.1-1-0.3
			c-0.3-0.2-0.6-0.4-0.8-0.7l-6.8-12.2c-0.1-0.2-0.2-0.3-0.5-0.3h-7.7c-0.2,0-0.3,0.1-0.3,0.3v12c0,0.8-0.4,1.2-1.2,1.2h-8.9
			c-0.8,0-1.2-0.4-1.2-1.2V21.6c0-0.8,0.4-1.2,1.2-1.2h29.1c1,0,2,0.2,2.9,0.6c0.9,0.4,1.7,0.9,2.4,1.6c0.7,0.7,1.2,1.5,1.6,2.4
			c0.4,0.9,0.6,1.9,0.6,2.9v17c0,1.6-0.5,3.1-1.5,4.4c-1,1.3-2.2,2.2-3.7,2.7l-0.2,0.1c-0.3,0.1-0.4,0.2-0.2,0.4l0.1,0.1L390,64.4z
			 M377.2,30.9h-15.5v11h15.5V30.9z"/>
	</g>
	<g>
		<path fill="#7C7B79" d="M156.8,20.3c1,0,2,0.2,2.9,0.6c0.9,0.4,1.7,0.9,2.4,1.6c0.7,0.7,1.2,1.5,1.6,2.4c0.4,0.9,0.6,1.9,0.6,2.9
			v36.4c0,0.3-0.1,0.6-0.4,0.9c-0.2,0.2-0.5,0.4-0.9,0.4h-9c-0.3,0-0.6-0.1-0.9-0.4c-0.2-0.2-0.4-0.5-0.4-0.9V52.7
			c0-0.3-0.1-0.6-0.3-0.9c-0.2-0.2-0.5-0.4-0.8-0.4H139c-0.3,0-0.6,0.1-0.9,0.4c-0.2,0.2-0.4,0.5-0.4,0.9v11.5
			c0,0.8-0.4,1.2-1.2,1.2h-8.9c-0.8,0-1.2-0.4-1.2-1.2V27.9c0-1,0.2-2,0.6-2.9c0.4-0.9,0.9-1.7,1.6-2.4c0.7-0.7,1.5-1.2,2.4-1.6
			c0.9-0.4,1.9-0.6,2.9-0.6H156.8z M152.9,41.8V30.5h-15.1v11.3H152.9z"/>
		<path fill="#7C7B79" d="M199.6,20.3c1,0,2,0.2,2.9,0.6c0.9,0.4,1.7,0.9,2.4,1.6c0.7,0.7,1.2,1.5,1.6,2.4c0.4,0.9,0.6,1.9,0.6,2.9
			v30c0,1-0.2,2-0.6,2.9c-0.4,0.9-0.9,1.7-1.6,2.4c-0.7,0.7-1.4,1.2-2.3,1.6c-0.9,0.4-1.8,0.6-2.9,0.6h-1.2c-0.2,0-0.2,0.1-0.1,0.3
			l3.5,6.1c0.2,0.3,0.2,0.5,0.1,0.7c-0.1,0.2-0.3,0.3-0.7,0.3h-10.7c-0.3,0-0.7-0.1-1-0.3c-0.3-0.2-0.6-0.4-0.8-0.7l-3.5-6.1
			c-0.2-0.2-0.3-0.3-0.5-0.3h-8.1c-1,0-2-0.2-2.9-0.6c-0.9-0.4-1.7-0.9-2.4-1.6c-0.7-0.7-1.2-1.5-1.6-2.4c-0.4-0.9-0.6-1.9-0.6-2.9
			v-30c0-1,0.2-2,0.6-2.9c0.4-0.9,0.9-1.7,1.6-2.4c0.7-0.7,1.5-1.2,2.4-1.6c0.9-0.4,1.9-0.6,2.9-0.6H199.6z M180.6,55h15.1V31.3
			h-15.1V55z"/>
		<path fill="#7C7B79" d="M249.9,20.7c0.2,0.2,0.4,0.5,0.4,0.9v36.4c0,1-0.2,2-0.6,2.9c-0.4,0.9-0.9,1.7-1.6,2.4
			c-0.7,0.7-1.5,1.2-2.4,1.6c-0.9,0.4-1.9,0.6-2.9,0.6h-22.8c-1,0-2-0.2-2.9-0.6c-0.9-0.4-1.7-0.9-2.4-1.6c-0.7-0.7-1.2-1.5-1.6-2.4
			c-0.4-0.9-0.6-1.9-0.6-2.9V21.6c0-0.8,0.4-1.2,1.2-1.2h8.9c0.8,0,1.2,0.4,1.2,1.2v31.8c0,0.3,0.1,0.6,0.4,0.8
			c0.2,0.2,0.5,0.3,0.9,0.3h12.8c0.3,0,0.6-0.1,0.8-0.3c0.2-0.2,0.3-0.5,0.3-0.8V21.6c0-0.3,0.1-0.6,0.4-0.9
			c0.2-0.2,0.5-0.4,0.9-0.4h9C249.4,20.3,249.7,20.5,249.9,20.7z"/>
		<path fill="#7C7B79" d="M267.1,64.2c0,0.8-0.4,1.2-1.2,1.2H257c-0.8,0-1.2-0.4-1.2-1.2V21.6c0-0.8,0.4-1.2,1.2-1.2h8.9
			c0.8,0,1.2,0.4,1.2,1.2V64.2z"/>
		<path fill="#7C7B79" d="M306.7,20.7c0.2,0.2,0.4,0.5,0.4,0.9v8.5c0,0.3-0.1,0.6-0.4,0.9c-0.2,0.2-0.5,0.4-0.9,0.4h-21.6
			c-0.2,0-0.3,0.1-0.3,0.3v7.7c0,0.2,0.1,0.3,0.3,0.3h16.4c0.3,0,0.6,0.1,0.8,0.4c0.2,0.2,0.3,0.5,0.3,0.9v7.4
			c0,0.3-0.1,0.6-0.3,0.9c-0.2,0.2-0.5,0.4-0.8,0.4h-16.4c-0.2,0-0.3,0.1-0.3,0.3v14.5c0,0.8-0.4,1.2-1.2,1.2h-8.9
			c-0.8,0-1.2-0.4-1.2-1.2V21.6c0-0.3,0.1-0.6,0.4-0.9c0.2-0.2,0.5-0.4,0.9-0.4h32C306.2,20.3,306.5,20.5,306.7,20.7z"/>
		<path fill="#7C7B79" d="M344.9,20.7c0.2,0.2,0.4,0.5,0.4,0.9v3.7v1.9v2.5c0,0.3-0.1,0.6-0.4,0.8c-0.2,0.2-0.5,0.3-0.9,0.3h-4.6
			h-13.4h-3.6c-0.2,0-0.3,0.1-0.3,0.3v7c0,0.2,0.1,0.3,0.3,0.3h18.4c0.3,0,0.6,0.1,0.8,0.4c0.2,0.2,0.3,0.5,0.3,0.9v6.4
			c0,0.3-0.1,0.6-0.3,0.9c-0.2,0.2-0.5,0.4-0.8,0.4h-18.4c-0.2,0-0.3,0.1-0.3,0.3v3.2v0.1v3.7c0,0.2,0.1,0.3,0.3,0.3h2.7h14.6h4.3
			c0.3,0,0.6,0.1,0.9,0.4c0.2,0.2,0.4,0.5,0.4,0.9v2.6v3.4v2.1c0,0.3-0.1,0.6-0.4,0.9c-0.2,0.2-0.5,0.4-0.9,0.4h-3.7h-24.5H312
			c-0.8,0-1.2-0.4-1.2-1.2v-2.2V24.7v-3.1c0-0.3,0.1-0.6,0.4-0.9c0.2-0.2,0.5-0.4,0.9-0.4h4.7H342h2.1
			C344.4,20.3,344.7,20.5,344.9,20.7z"/>
		<path fill="#7C7B79" d="M390,64.4c0.2,0.3,0.2,0.5,0.1,0.7s-0.4,0.3-0.7,0.3h-10.2c-0.3,0-0.7-0.1-1-0.3c-0.3-0.2-0.6-0.4-0.8-0.7
			l-6.8-12.2c-0.1-0.2-0.2-0.3-0.5-0.3h-7.7c-0.2,0-0.3,0.1-0.3,0.3v12c0,0.8-0.4,1.2-1.2,1.2h-8.9c-0.8,0-1.2-0.4-1.2-1.2V21.6
			c0-0.8,0.4-1.2,1.2-1.2h29.1c1,0,2,0.2,2.9,0.6c0.9,0.4,1.7,0.9,2.4,1.6c0.7,0.7,1.2,1.5,1.6,2.4c0.4,0.9,0.6,1.9,0.6,2.9v17
			c0,1.6-0.5,3.1-1.5,4.4c-1,1.3-2.2,2.2-3.7,2.7l-0.2,0.1c-0.3,0.1-0.4,0.2-0.2,0.4l0.1,0.1L390,64.4z M377.2,30.9h-15.5v11h15.5
			V30.9z"/>
	</g>
	<g>
		<g id="right">
			<path fill="#7C7B79" d="M109.3,4.3c0,0-9.1,40.7-20.8,56.1c-11.7,15.4-51,26.2-51,26.2L39,107l64.5-25l11-78.4L109.3,4.3z"/>
			<path fill="#499E52" d="M79.7,38.3C91.3,20.5,94.5,6.3,94.5,6.3l3.6-0.5L87.3,7.3c-23.9,5.9-23.7,30.9-53,38l1.4,18.6l-0.1-1.1
				C35.6,62.8,68.2,56.1,79.7,38.3z"/>
			<path fill="#00BDDC" d="M88.5,60.4C100.2,45,109.3,4.3,109.3,4.3l-14.7,2c0,0-3.2,14.1-14.8,31.9S35.6,62.8,35.6,62.8l1.8,23.7
				C37.5,86.5,76.7,75.7,88.5,60.4z"/>
		</g>
		<g id="left">
			<polygon fill="#5A5957" points="37.5,86.5 4.3,62.1 6.6,82.2 39,107 			"/>
			<polygon fill="#355A38" points="34.3,45.4 0,23.3 2,41.4 35.6,62.8 			"/>
			<polygon fill="#0094B0" points="35.6,62.8 2,41.4 4.3,62.1 37.5,86.5 			"/>
		</g>
		<path id="top" fill="#59C064" d="M34.3,45.4L0,23.3C47.1,16.3,43.3-0.9,63.6,0l50.9,3.5L87.3,7.3C63.4,13.3,63.6,38.3,34.3,45.4z"
			/>
	</g>
</g>
<g id="spacers" display="none">
	<rect x="114.7" y="66" display="inline" fill="#CC00B0" width="16.6" height="16.6"/>
	<rect x="110" y="34.7" display="inline" fill="#CC00B0" width="16.6" height="16.6"/>
	<rect x="114.7" y="3.6" display="inline" fill="#CC00B0" width="16.6" height="16.6"/>
	<rect x="114.7" y="90.5" display="inline" fill="#CC00B0" width="16.6" height="16.6"/>
</g>
<g id="guides" display="none">
</g>
</svg>
